<?xml version="1.0" standalone="no"?>
<!DOCTYPE svg PUBLIC "-//W3C//DTD SVG 20010904//EN"
 "http://www.w3.org/TR/2001/REC-SVG-20010904/DTD/svg10.dtd">
<svg version="1.0" xmlns="http://www.w3.org/2000/svg"
 width="1024.000000pt" height="1024.000000pt" viewBox="0 0 1024.000000 1024.000000"
 preserveAspectRatio="xMidYMid meet">
<metadata>
Created by potrace 1.14, written by Peter Selinger 2001-2017
</metadata>
<g transform="translate(0.000000,1024.000000) scale(0.100000,-0.100000)"
fill="#000000" stroke="none">
<path d="M4878 9405 c-2 -2 -34 -6 -73 -9 -38 -4 -81 -9 -95 -11 -14 -2 -52
-7 -85 -10 -53 -5 -108 -13 -220 -31 -16 -2 -43 -7 -60 -11 -16 -3 -39 -7 -50
-8 -11 -2 -60 -13 -110 -24 -122 -29 -137 -32 -161 -37 -31 -6 -237 -70 -314
-98 -186 -68 -223 -82 -315 -123 -121 -54 -226 -106 -320 -158 -72 -39 -296
-175 -305 -185 -3 -3 -25 -19 -50 -35 -24 -17 -51 -35 -60 -42 -8 -6 -51 -38
-95 -71 -44 -33 -90 -68 -102 -78 -12 -10 -32 -28 -45 -38 -187 -154 -428
-389 -547 -536 -20 -25 -46 -56 -59 -70 -41 -45 -228 -293 -274 -365 -99 -156
-128 -203 -162 -265 -40 -75 -136 -268 -159 -320 -8 -19 -29 -65 -46 -103 -17
-37 -31 -71 -31 -75 0 -4 -16 -50 -36 -102 -20 -52 -37 -102 -39 -110 -2 -8
-10 -35 -18 -60 -38 -118 -95 -340 -111 -430 -11 -66 -16 -97 -21 -125 -3 -16
-8 -46 -11 -65 -2 -19 -7 -46 -9 -60 -3 -14 -8 -50 -11 -80 -3 -30 -7 -71 -10
-90 -23 -185 -23 -645 0 -855 6 -53 20 -170 21 -175 0 -3 4 -27 9 -53 4 -27 9
-59 12 -70 2 -12 6 -35 9 -52 36 -214 170 -657 274 -905 67 -159 171 -375 233
-484 107 -189 268 -433 355 -537 10 -11 25 -30 35 -40 9 -11 31 -39 50 -62 83
-105 327 -348 453 -452 33 -28 77 -66 98 -84 21 -19 45 -41 55 -48 9 -7 40
-30 67 -51 137 -105 486 -333 554 -362 13 -6 35 -19 50 -29 14 -10 28 -18 31
-18 3 1 50 -22 105 -50 55 -28 128 -63 162 -77 35 -14 86 -37 115 -50 29 -13
109 -44 178 -69 278 -101 496 -156 770 -193 30 -4 64 -9 75 -10 53 -9 459 -11
520 -3 247 31 315 47 447 107 262 120 471 412 534 747 19 104 25 232 13 307
-5 29 -11 70 -14 91 -7 43 -72 236 -85 252 -14 17 -81 175 -102 240 -78 247
-68 495 31 733 31 73 84 174 116 217 86 119 117 154 188 220 124 112 237 179
394 229 153 50 215 53 1023 56 812 2 796 2 915 25 208 42 360 125 522 282 173
169 260 327 313 572 15 70 17 120 15 310 -2 124 -6 240 -9 256 -2 17 -7 62
-10 100 -7 81 -13 129 -26 205 -5 30 -12 78 -16 105 -7 58 -11 80 -18 103 -3
9 -7 28 -10 42 -34 185 -166 600 -248 780 -39 86 -182 374 -188 380 -3 3 -11
16 -18 30 -18 37 -44 81 -69 117 -13 17 -23 36 -23 42 0 6 -4 11 -9 11 -5 0
-13 9 -16 20 -5 15 -161 243 -202 295 -63 79 -195 239 -223 269 -127 139 -313
319 -408 396 -49 39 -76 62 -112 93 -42 37 -249 181 -360 251 -58 36 -110 69
-115 73 -23 18 -229 129 -300 162 -179 85 -243 113 -375 163 -252 97 -537 178
-755 213 -123 20 -147 25 -170 29 -11 3 -56 8 -100 11 -44 4 -93 9 -110 12
-29 5 -642 12 -647 8z m395 -1090 c129 -39 232 -116 310 -233 61 -90 79 -148
83 -262 4 -110 -6 -161 -46 -245 -42 -87 -134 -194 -197 -229 -116 -63 -196
-84 -306 -80 -170 8 -314 78 -403 198 -161 217 -144 515 40 698 35 35 70 68
77 73 36 26 121 66 170 79 70 19 211 20 272 1z m-2169 -1066 c190 -35 367
-210 414 -409 14 -60 13 -180 -3 -239 -41 -155 -181 -320 -308 -363 -17 -6
-38 -15 -44 -21 -7 -5 -13 -7 -13 -4 0 4 -17 0 -38 -7 -25 -9 -72 -13 -128
-11 -247 7 -413 130 -501 370 -9 23 -16 85 -18 145 -3 116 16 193 71 287 48
82 161 183 249 222 82 37 215 50 319 30z m4277 1 c101 -18 184 -65 272 -152
75 -75 129 -162 142 -229 3 -13 7 -36 10 -50 10 -43 7 -151 -4 -207 -10 -49
-33 -105 -72 -172 -24 -41 -132 -145 -179 -173 -117 -68 -264 -91 -392 -60
-34 8 -67 16 -73 17 -5 1 -37 16 -70 34 -200 107 -304 337 -259 572 20 108 60
180 146 268 131 132 297 185 479 152z m-4781 -2149 c74 -21 155 -70 223 -135
122 -116 167 -222 168 -386 1 -131 -44 -243 -137 -348 -107 -120 -217 -173
-374 -178 -58 -2 -115 2 -146 10 -58 15 -171 64 -198 86 -135 108 -208 258
-209 430 0 76 5 104 38 210 15 46 77 131 136 185 49 45 139 105 158 105 6 0
19 4 29 10 47 27 228 34 312 11z"/>
</g>
</svg>
